<svg width="418" height="173" viewBox="0 0 418 173" fill="none" xmlns="http://www.w3.org/2000/svg">
<path d="M28.45 102.352C22.85 102.352 18.9167 101.452 16.65 99.6525C14.3833 97.8191 13.25 95.2191 13.25 91.8525C13.25 90.7858 13.3167 89.3358 13.45 87.5025C13.5833 85.6358 13.7167 84.0858 13.85 82.8525L18.2 83.2025C18.1667 83.5358 18.0833 84.4525 17.95 85.9525C17.85 87.4191 17.8 88.8858 17.8 90.3525C17.8 91.6191 18.1333 92.6191 18.8 93.3525C19.4667 94.0525 20.6667 94.5691 22.4 94.9025C24.1667 95.2025 26.7167 95.3525 30.05 95.3525C32.85 95.3525 35.7 95.2358 38.6 95.0025C41.5 94.7358 44 94.3525 46.1 93.8525L45.6 82.7025L51.05 82.2525V91.8025C51.05 93.6358 50.75 95.1858 50.15 96.4525C49.5833 97.7191 48.5833 98.7525 47.15 99.5525C44.95 100.719 42.1833 101.486 38.85 101.852C35.55 102.186 32.0833 102.352 28.45 102.352ZM57 101.902C55.3333 101.902 53.8667 101.802 52.6 101.602C51.3333 101.402 50.15 100.786 49.05 99.7525C47.95 98.6858 47.4 97.0358 47.4 94.8025V84.0525H51.05V91.2025C51.05 92.7025 51.5333 93.7025 52.5 94.2025C53.4667 94.6691 54.9667 94.9025 57 94.9025L57.5 95.4025V101.402L57 101.902ZM32.2 78.2525V83.9025H25.45V78.2525H32.2ZM38.3 78.2525V83.9025H31.55V78.2525H38.3ZM91.7215 102.052C90.3548 102.052 88.8382 101.869 87.1715 101.502C85.5382 101.136 84.0382 100.569 82.6715 99.8025C81.3382 99.0025 80.4548 98.0358 80.0215 96.9025C79.8548 96.4691 79.7715 96.0358 79.7715 95.6025C79.7715 94.5358 80.1715 93.4525 80.9715 92.3525C83.8715 93.9525 87.7715 94.9691 92.6715 95.4025L92.2215 81.1525L97.8215 80.9025V95.1025C97.8215 97.4691 97.3382 99.2191 96.3715 100.352C95.4382 101.486 93.8882 102.052 91.7215 102.052ZM57.0215 94.9025H58.3215C59.6882 94.9025 60.9048 94.8191 61.9715 94.6525C63.0382 94.4858 63.8548 94.3025 64.4215 94.1025V82.7025H69.3715V89.3525C69.3715 92.7858 68.8548 95.4191 67.8215 97.2525C66.8215 99.0858 65.4382 100.319 63.6715 100.952C61.9048 101.586 59.6882 101.902 57.0215 101.902V94.9025ZM73.8715 102.052C71.1715 102.052 69.0882 101.436 67.6215 100.202C66.1548 98.9691 65.4215 97.2191 65.4215 94.9525V82.7025H69.3715V92.0025C69.3715 93.1025 69.7215 93.8858 70.4215 94.3525C71.1548 94.8191 72.4215 95.0525 74.2215 95.0525L73.8715 102.052ZM73.8715 102.052C73.5382 102.052 73.1882 101.569 72.8215 100.602C72.4548 99.6358 72.2715 98.6691 72.2715 97.7025C72.2715 96.9358 72.4215 96.3025 72.7215 95.8025C73.0215 95.3025 73.4882 95.0525 74.1215 95.0525C76.3215 95.0525 78.1048 94.8025 79.4715 94.3025V82.4525H84.3715V93.6525C84.3715 96.4525 83.3715 98.5525 81.3715 99.9525C79.4048 101.352 76.9048 102.052 73.8715 102.052ZM104.971 101.902C101.305 101.902 98.7215 101.286 97.2215 100.052C95.7548 98.7858 95.0215 96.8025 95.0215 94.1025V87.3525H97.8215V88.7025C97.8215 90.7358 97.9715 92.1691 98.2715 93.0025C98.6048 93.8025 99.2382 94.3191 100.171 94.5525C101.105 94.7858 102.705 94.9025 104.971 94.9025L105.471 95.4025V101.402L104.971 101.902ZM104.971 94.9025H106.521C109.154 94.9025 111.171 94.6358 112.571 94.1025L112.121 81.6025L117.521 81.3025V89.5025C117.521 92.9025 116.987 95.5191 115.921 97.3525C114.854 99.1525 113.421 100.369 111.621 101.002C109.854 101.602 107.637 101.902 104.971 101.902V94.9025ZM123.471 101.902C121.804 101.902 120.337 101.802 119.071 101.602C117.804 101.402 116.621 100.786 115.521 99.7525C114.421 98.6858 113.871 97.0358 113.871 94.8025V82.7525H117.521V91.2025C117.521 92.7025 118.004 93.7025 118.971 94.2025C119.937 94.6691 121.437 94.9025 123.471 94.9025L123.971 95.4025V101.402L123.471 101.902ZM114.521 105.952V111.602H107.771V105.952H114.521ZM120.621 105.952V111.602H113.871V105.952H120.621ZM123.477 94.9025C124.477 94.9025 125.627 94.8358 126.927 94.7025C128.26 94.5691 129.293 94.3691 130.027 94.1025L129.577 68.9525L135.027 68.4025V93.4525C135.027 96.4858 134.043 98.6525 132.077 99.9525C130.143 101.252 127.277 101.902 123.477 101.902V94.9025ZM152.741 101.902C150.375 101.902 148.425 101.719 146.891 101.352C145.358 100.986 144.091 100.202 143.091 99.0025C142.125 97.7691 141.608 95.9191 141.541 93.4525L140.891 68.9525L146.391 68.4025V92.5025C146.391 93.1691 146.558 93.6691 146.891 94.0025C147.225 94.3358 147.825 94.5691 148.691 94.7025C149.591 94.8358 150.941 94.9025 152.741 94.9025L153.241 95.4025V101.402L152.741 101.902ZM152.725 94.9025H154.275C156.908 94.9025 158.925 94.6358 160.325 94.1025L159.875 81.6025L165.275 81.3025V89.5025C165.275 92.9025 164.741 95.5191 163.675 97.3525C162.608 99.1525 161.175 100.369 159.375 101.002C157.608 101.602 155.391 101.902 152.725 101.902V94.9025ZM171.225 101.902C169.558 101.902 168.091 101.802 166.825 101.602C165.558 101.402 164.375 100.786 163.275 99.7525C162.175 98.6858 161.625 97.0358 161.625 94.8025V82.7525H165.275V91.2025C165.275 92.7025 165.758 93.7025 166.725 94.2025C167.691 94.6691 169.191 94.9025 171.225 94.9025L171.725 95.4025V101.402L171.225 101.902ZM162.125 71.1525V76.8025H155.375V71.1525H162.125ZM168.225 71.1525V76.8025H161.475V71.1525H168.225ZM171.23 94.9025C172.664 94.9025 174.197 94.8525 175.83 94.7525C177.497 94.6191 178.68 94.4025 179.38 94.1025L178.83 80.6525L184.38 80.4025V92.4525C184.38 95.9858 183.23 98.4525 180.93 99.8525C178.664 101.219 175.43 101.902 171.23 101.902V94.9025ZM177.93 105.952V111.602H171.18V105.952H177.93ZM184.03 105.952V111.602H177.28V105.952H184.03ZM211.098 87.5525C211.965 89.7191 212.398 91.6691 212.398 93.4025C212.398 99.3358 207.165 102.302 196.698 102.302C192.165 102.302 189.898 99.8191 189.898 94.8525V87.1525L194.448 87.2525V95.3025C201.048 95.3025 205.565 94.9191 207.998 94.1525L201.798 79.3525L206.548 76.0025L211.098 87.5525Z" fill="white"/>
<path d="M289.85 10C283.271 10 277.74 10 273.354 10.5875C268.7 11.2142 264.447 12.6007 261.024 16.0238C257.601 19.447 256.214 23.7005 255.588 28.3535C255 32.7402 255 38.2705 255 44.8505V45.6417C255 52.2217 255 57.752 255.588 62.1387C256.214 66.7917 257.601 71.0452 261.024 74.4683C264.447 77.8915 268.7 79.278 273.354 79.9047C277.74 80.4922 283.271 80.4922 289.85 80.4922H290.642C297.222 80.4922 302.752 80.4922 307.139 79.9047C311.792 79.278 316.045 77.8915 319.468 74.4683C322.891 71.0452 324.278 66.7917 324.905 62.1387C325.492 57.752 325.492 52.2217 325.492 45.6417V44.8583C325.492 38.2783 325.492 32.748 324.905 28.3613C324.278 23.7083 322.891 19.4548 319.468 16.0317C316.045 12.6085 311.792 11.222 307.139 10.5953C302.752 10.0078 297.222 10.0078 290.642 10.0078L289.85 10ZM372.1 10C365.521 10 359.99 10 355.604 10.5875C350.951 11.2142 346.697 12.6007 343.274 16.0238C339.851 19.447 338.464 23.7005 337.838 28.3535C337.25 32.7402 337.25 38.2705 337.25 44.8505V45.6417C337.25 52.2217 337.25 57.752 337.838 62.1387C338.464 66.7917 339.851 71.0452 343.274 74.4683C346.697 77.8915 350.951 79.278 355.604 79.9047C359.99 80.4922 365.521 80.4922 372.1 80.4922H372.9C379.48 80.4922 385.01 80.4922 389.396 79.9047C394.049 79.278 398.303 77.8915 401.726 74.4683C405.149 71.0452 406.536 66.7917 407.162 62.1387C407.75 57.752 407.75 52.2217 407.75 45.6417V44.8583C407.75 38.2783 407.75 32.748 407.162 28.3613C406.536 23.7083 405.149 19.4548 401.726 16.0317C398.303 12.6085 394.049 11.222 389.396 10.5953C385.01 10.0078 379.487 10.0078 372.907 10.0078L372.1 10ZM289.85 92.3048C283.271 92.3048 277.74 92.3048 273.354 92.8923C268.7 93.519 264.447 94.9055 261.024 98.3287C257.601 101.752 256.214 106.005 255.588 110.658C255 115.045 255 120.575 255 127.155V127.954C255 134.534 255 140.065 255.588 144.451C256.214 149.104 257.601 153.358 261.024 156.781C264.447 160.204 268.7 161.591 273.354 162.217C277.74 162.805 283.271 162.805 289.85 162.805H290.642C297.222 162.805 302.752 162.805 307.139 162.217C311.792 161.591 316.045 160.204 319.468 156.781C322.891 153.358 324.278 149.104 324.905 144.451C325.492 140.065 325.492 134.534 325.492 127.954V127.155C325.492 120.575 325.492 115.053 324.905 110.658C324.278 106.005 322.891 101.752 319.468 98.3287C316.045 94.9055 311.792 93.519 307.139 92.8923C302.752 92.3048 297.222 92.3048 290.642 92.3048H289.85ZM372.1 92.3048C365.521 92.3048 359.99 92.3048 355.604 92.8923C350.951 93.519 346.697 94.9055 343.274 98.3287C339.851 101.752 338.464 106.005 337.838 110.658C337.25 115.045 337.25 120.575 337.25 127.155V127.954C337.25 134.534 337.25 140.065 337.838 144.451C338.464 149.104 339.851 153.358 343.274 156.781C346.697 160.204 350.951 161.591 355.604 162.217C359.99 162.805 365.521 162.805 372.1 162.805H372.9C379.48 162.805 385.01 162.805 389.396 162.217C394.049 161.591 398.303 160.204 401.726 156.781C405.149 153.358 406.536 149.104 407.162 144.451C407.75 140.065 407.75 134.534 407.75 127.954V127.155C407.75 120.575 407.75 115.053 407.162 110.658C406.536 106.005 405.149 101.752 401.726 98.3287C398.303 94.9055 394.049 93.519 389.396 92.8923C385.01 92.3048 379.479 92.3048 372.907 92.3048H372.1Z" fill="#4B9AF4"/>
</svg>
