<svg width="9" height="8" viewBox="0 0 9 8" fill="none" xmlns="http://www.w3.org/2000/svg">
<path d="M9.00089 4.00065C9.00089 3.86804 8.94822 3.74086 8.85445 3.6471C8.76068 3.55333 8.6335 3.50065 8.50089 3.50065L1.70789 3.50065L4.35489 0.85465C4.44878 0.760764 4.50153 0.633426 4.50153 0.50065C4.50153 0.367874 4.44878 0.240537 4.35489 0.14665C4.26101 0.0527635 4.13367 1.88928e-05 4.00089 1.88986e-05C3.86812 1.89044e-05 3.74078 0.0527635 3.64689 0.14665L0.146894 3.64665C0.10033 3.6931 0.0633876 3.74827 0.0381811 3.80902C0.0129747 3.86976 -1.77748e-07 3.93488 -1.74873e-07 4.00065C-1.71998e-07 4.06642 0.0129747 4.13154 0.0381811 4.19228C0.0633876 4.25303 0.10033 4.3082 0.146894 4.35465L3.64689 7.85465C3.69338 7.90114 3.74857 7.93801 3.80931 7.96317C3.87005 7.98833 3.93515 8.00128 4.00089 8.00128C4.13367 8.00128 4.26101 7.94854 4.35489 7.85465C4.44878 7.76076 4.50153 7.63343 4.50153 7.50065C4.50153 7.36787 4.44878 7.24054 4.35489 7.14665L1.70789 4.50065L8.50089 4.50065C8.6335 4.50065 8.76068 4.44797 8.85445 4.3542C8.94822 4.26043 9.00089 4.13326 9.00089 4.00065Z" fill="white"/>
</svg>
