<svg width="84" height="36" viewBox="0 0 84 36" fill="none" xmlns="http://www.w3.org/2000/svg">
<path d="M7.625 29.325C3.59167 29.325 1.575 27.4833 1.575 23.8C1.575 23.3167 1.675 21.6917 1.875 18.925L1.95 17.975L4.4 18.175C4.25 20.5417 4.175 22.175 4.175 23.075C4.175 23.925 4.5 24.5083 5.15 24.825C5.81667 25.1417 6.7 25.3 7.8 25.3C8.81667 25.3 9.73333 25.225 10.55 25.075C11.3833 24.925 12.075 24.725 12.625 24.475L12.375 9.275L15.45 9V24.075C15.45 25.2083 15.0917 26.1667 14.375 26.95C13.675 27.75 12.7333 28.3417 11.55 28.725C10.3667 29.125 9.05833 29.325 7.625 29.325ZM17.925 26C17.225 26 16.5917 25.9333 16.025 25.8C15.475 25.65 14.9833 25.3083 14.55 24.775C14.1333 24.225 13.925 23.4 13.925 22.3V18.25L15.45 18.2V20.225C15.45 20.925 15.6417 21.3917 16.025 21.625C16.4083 21.8417 17.0417 21.9583 17.925 21.975L18.175 22.225V25.75L17.925 26ZM17.9199 21.975H18.6949C19.6783 21.975 20.6283 21.8833 21.5449 21.7L21.3199 15.7L24.3699 15.55V19.575C24.3699 21.3417 24.0949 22.7 23.5449 23.65C22.9949 24.5833 22.2533 25.2083 21.3199 25.525C20.4033 25.8417 19.2699 26 17.9199 26V21.975ZM27.1699 26C26.3699 26 25.6283 25.9417 24.9449 25.825C24.2783 25.6917 23.6533 25.35 23.0699 24.8C22.5033 24.2333 22.2199 23.3583 22.2199 22.175V16.225H24.3699V20.325C24.3699 20.9917 24.5866 21.4333 25.0199 21.65C25.4533 21.8667 26.1699 21.975 27.1699 21.975L27.4199 22.225V25.75L27.1699 26ZM22.8449 28.025V31.025H19.1699V28.025H22.8449ZM25.8949 28.025V31.025H22.2199V28.025H25.8949ZM27.1729 21.975H27.9479C28.9312 21.975 29.8812 21.8833 30.7979 21.7L30.5729 15.7L33.6229 15.55V19.575C33.6229 21.3417 33.3479 22.7 32.7979 23.65C32.2479 24.5833 31.5062 25.2083 30.5729 25.525C29.6562 25.8417 28.5229 26 27.1729 26V21.975ZM36.4229 26C35.6229 26 34.8812 25.9417 34.1979 25.825C33.5312 25.6917 32.9062 25.35 32.3229 24.8C31.7562 24.2333 31.4729 23.3583 31.4729 22.175V16.225H33.6229V20.325C33.6229 20.9917 33.8395 21.4333 34.2729 21.65C34.7062 21.8667 35.4229 21.975 36.4229 21.975L36.6729 22.225V25.75L36.4229 26ZM30.2229 27.95H33.4729V31.325H30.2229V27.95ZM36.4258 21.975C37.1924 21.975 37.9841 21.9583 38.8008 21.925C39.6174 21.875 40.2091 21.8 40.5758 21.7L40.3008 15.225L43.4258 15.075V21.05C43.4258 22.9333 42.8091 24.2333 41.5758 24.95C40.3424 25.65 38.6258 26 36.4258 26V21.975ZM43.5258 9.55V12.95H40.2758V9.55H43.5258ZM41.016 28.275C42.316 28.0083 43.4327 27.675 44.366 27.275C45.316 26.8917 46.0243 26.5 46.491 26.1C46.9743 25.7167 47.2243 25.3833 47.241 25.1L47.266 24.025C47.266 23.825 47.3743 23.55 47.591 23.2C47.8077 22.8333 48.066 22.5167 48.366 22.25C48.666 21.9667 48.9327 21.825 49.166 21.825C49.566 21.825 49.766 22.25 49.766 23.1C49.766 24.4167 49.616 25.6083 49.316 26.675C49.016 27.7583 48.2577 28.8 47.041 29.8C45.841 30.8167 44.0077 31.5583 41.541 32.025L41.016 28.275ZM46.441 15.975L49.491 15.725C49.6743 19.025 49.766 21.4833 49.766 23.1C49.766 24.0667 49.6577 24.8667 49.441 25.5C49.241 26.1333 48.9827 26.5917 48.666 26.875C48.366 27.175 48.066 27.325 47.766 27.325C47.566 27.325 47.3993 27.2583 47.266 27.125C47.1327 27.0083 47.0577 26.85 47.041 26.65L46.441 15.975ZM49.641 10.2V13.6H46.391V10.2H49.641Z" fill="#EF394E"/>
<path d="M82.25 10.9167H78V9.5C78 7.99711 77.403 6.55577 76.3403 5.49306C75.2776 4.43036 73.8362 3.83333 72.3333 3.83333C70.8304 3.83333 69.3891 4.43036 68.3264 5.49306C67.2637 6.55577 66.6667 7.99711 66.6667 9.5V10.9167H62.4167C62.0409 10.9167 61.6806 11.0659 61.4149 11.3316C61.1493 11.5973 61 11.9576 61 12.3333V27.9167C61 29.0438 61.4478 30.1248 62.2448 30.9219C63.0418 31.7189 64.1228 32.1667 65.25 32.1667H79.4167C80.5438 32.1667 81.6248 31.7189 82.4219 30.9219C83.2189 30.1248 83.6667 29.0438 83.6667 27.9167V12.3333C83.6667 11.9576 83.5174 11.5973 83.2517 11.3316C82.9861 11.0659 82.6257 10.9167 82.25 10.9167ZM69.5 9.5C69.5 8.74855 69.7985 8.02788 70.3299 7.49653C70.8612 6.96518 71.5819 6.66667 72.3333 6.66667C73.0848 6.66667 73.8054 6.96518 74.3368 7.49653C74.8682 8.02788 75.1667 8.74855 75.1667 9.5V10.9167H69.5V9.5ZM80.8333 27.9167C80.8333 28.2924 80.6841 28.6527 80.4184 28.9184C80.1527 29.1841 79.7924 29.3333 79.4167 29.3333H65.25C64.8743 29.3333 64.5139 29.1841 64.2483 28.9184C63.9826 28.6527 63.8333 28.2924 63.8333 27.9167V13.75H66.6667V15.1667C66.6667 15.5424 66.8159 15.9027 67.0816 16.1684C67.3473 16.4341 67.7076 16.5833 68.0833 16.5833C68.4591 16.5833 68.8194 16.4341 69.0851 16.1684C69.3507 15.9027 69.5 15.5424 69.5 15.1667V13.75H75.1667V15.1667C75.1667 15.5424 75.3159 15.9027 75.5816 16.1684C75.8473 16.4341 76.2076 16.5833 76.5833 16.5833C76.9591 16.5833 77.3194 16.4341 77.5851 16.1684C77.8507 15.9027 78 15.5424 78 15.1667V13.75H80.8333V27.9167Z" fill="#EF394E"/>
</svg>
