<svg width="33" height="41" viewBox="0 0 33 41" fill="none" xmlns="http://www.w3.org/2000/svg">
<path d="M30.625 10.2083H24.5V8.16667C24.5 6.00073 23.6396 3.92351 22.108 2.39196C20.5765 0.860414 18.4993 0 16.3333 0C14.1674 0 12.0902 0.860414 10.5586 2.39196C9.02708 3.92351 8.16667 6.00073 8.16667 8.16667V10.2083H2.04167C1.50018 10.2083 0.980878 10.4234 0.597991 10.8063C0.215104 11.1892 0 11.7085 0 12.25V34.7083C0 36.3328 0.645311 37.8907 1.79397 39.0394C2.94263 40.188 4.50055 40.8333 6.125 40.8333H26.5417C28.1661 40.8333 29.724 40.188 30.8727 39.0394C32.0214 37.8907 32.6667 36.3328 32.6667 34.7083V12.25C32.6667 11.7085 32.4516 11.1892 32.0687 10.8063C31.6858 10.4234 31.1665 10.2083 30.625 10.2083ZM12.25 8.16667C12.25 7.0837 12.6802 6.04509 13.446 5.27931C14.2118 4.51354 15.2504 4.08333 16.3333 4.08333C17.4163 4.08333 18.4549 4.51354 19.2207 5.27931C19.9865 6.04509 20.4167 7.0837 20.4167 8.16667V10.2083H12.25V8.16667ZM28.5833 34.7083C28.5833 35.2498 28.3682 35.7691 27.9853 36.152C27.6025 36.5349 27.0832 36.75 26.5417 36.75H6.125C5.58352 36.75 5.06421 36.5349 4.68132 36.152C4.29844 35.7691 4.08333 35.2498 4.08333 34.7083V14.2917H8.16667V16.3333C8.16667 16.8748 8.38177 17.3941 8.76466 17.777C9.14754 18.1599 9.66685 18.375 10.2083 18.375C10.7498 18.375 11.2691 18.1599 11.652 17.777C12.0349 17.3941 12.25 16.8748 12.25 16.3333V14.2917H20.4167V16.3333C20.4167 16.8748 20.6318 17.3941 21.0147 17.777C21.3975 18.1599 21.9169 18.375 22.4583 18.375C22.9998 18.375 23.5191 18.1599 23.902 17.777C24.2849 17.3941 24.5 16.8748 24.5 16.3333V14.2917H28.5833V34.7083Z" fill="#EF394E"/>
</svg>
