<svg width="165" height="65" viewBox="0 0 165 65" fill="none" xmlns="http://www.w3.org/2000/svg">
<path d="M15.49 40.5448C12.586 40.5448 11.134 39.2188 11.134 36.5668C11.134 36.2188 11.206 35.0488 11.35 33.0568L11.404 32.3728L13.168 32.5168C13.06 34.2208 13.006 35.3968 13.006 36.0448C13.006 36.6568 13.24 37.0768 13.708 37.3048C14.188 37.5328 14.824 37.6468 15.616 37.6468C16.396 37.6468 17.128 37.5868 17.812 37.4668C18.496 37.3468 19.042 37.1968 19.45 37.0168L19.27 31.3108L21.484 31.0768V36.6748C21.484 37.9468 20.92 38.9068 19.792 39.5548C18.664 40.2148 17.23 40.5448 15.49 40.5448ZM23.5 38.1508C22.924 38.1508 22.432 38.1148 22.024 38.0428C21.628 37.9708 21.256 37.7428 20.908 37.3588C20.56 36.9628 20.386 36.3388 20.386 35.4868V31.8868L21.484 31.8328V33.9928C21.484 34.3528 21.556 34.6288 21.7 34.8208C21.856 35.0008 22.072 35.1208 22.348 35.1808C22.624 35.2288 23.008 35.2528 23.5 35.2528L23.68 35.4328V37.9708L23.5 38.1508ZM17.326 30.5548V33.0028H14.986V30.5548H17.326ZM30.07 38.2048C29.71 38.2048 29.218 38.1448 28.594 38.0248C27.97 37.8928 27.376 37.7068 26.812 37.4668C26.26 37.2268 25.882 36.9388 25.678 36.6028C25.606 36.4948 25.57 36.3628 25.57 36.2068C25.57 35.7868 25.768 35.2108 26.164 34.4788C26.608 34.7188 27.238 34.9348 28.054 35.1268C28.87 35.3068 29.74 35.4388 30.664 35.5228V32.5888H28.756C28.432 32.5888 28.192 32.6608 28.036 32.8048C27.88 32.9488 27.766 33.1768 27.694 33.4888L27.262 35.4328C27.058 36.3328 26.644 37.0108 26.02 37.4668C25.396 37.9228 24.682 38.1508 23.878 38.1508H23.5V35.2528H23.896C24.436 35.2528 24.832 35.1868 25.084 35.0548C25.348 34.9108 25.558 34.6408 25.714 34.2448C25.834 33.5848 25.966 32.9608 26.11 32.3728C26.29 31.5568 26.68 30.9448 27.28 30.5368C27.88 30.1168 28.612 29.9068 29.476 29.9068H32.464V35.7748C32.464 36.6268 32.242 37.2448 31.798 37.6288C31.366 38.0128 30.79 38.2048 30.07 38.2048ZM40.2539 38.3668C39.4739 38.3668 38.8139 38.1388 38.2739 37.6828C37.7339 37.2148 37.4639 36.5788 37.4639 35.7748C37.4639 35.5708 37.4819 35.3548 37.5179 35.1268L38.4719 30.0148H39.8759C41.4119 30.0148 42.5399 30.4408 43.2599 31.2928C43.9799 32.1448 44.3399 33.3148 44.3399 34.8028C44.3399 35.2708 44.2619 35.6848 44.1059 36.0448C43.9619 36.3928 43.7819 36.6628 43.5659 36.8548C43.3499 37.0348 43.1519 37.1248 42.9719 37.1248C42.7559 37.1248 42.6479 37.0048 42.6479 36.7648C42.6479 35.6728 42.5939 34.8508 42.4859 34.2988C42.3779 33.7468 42.1319 33.3388 41.7479 33.0748C41.3639 32.7988 40.7639 32.6608 39.9479 32.6608H39.7679L39.2999 35.5588C39.5159 35.5828 39.9719 35.5948 40.6679 35.5948C41.2919 35.5828 41.8499 35.5408 42.3419 35.4688C42.8459 35.3848 43.1399 35.3188 43.2239 35.2708C43.2839 35.2348 43.4339 35.1448 43.6739 35.0008C43.9139 34.8568 44.0819 34.7668 44.1779 34.7308C44.2859 34.6828 44.3399 34.7068 44.3399 34.8028C44.3399 35.7628 44.1719 36.5068 43.8359 37.0348C43.5119 37.5508 43.0559 37.9048 42.4679 38.0968C41.8799 38.2768 41.1419 38.3668 40.2539 38.3668ZM50.4851 38.1508C49.6571 38.1508 48.9731 38.0848 48.4331 37.9528C47.8931 37.8088 47.4431 37.5088 47.0831 37.0528C46.7231 36.5848 46.5311 35.8888 46.5071 34.9648L46.2551 26.1088L48.4511 25.9108V34.4968C48.4511 34.7128 48.4991 34.8748 48.5951 34.9828C48.7031 35.0788 48.8951 35.1508 49.1711 35.1988C49.4471 35.2348 49.8851 35.2528 50.4851 35.2528L50.6651 35.4328V37.9708L50.4851 38.1508ZM50.4824 35.2528H51.2384C52.4984 35.2528 53.3624 35.2348 53.8304 35.1988C54.3104 35.1628 54.5864 35.1448 54.6584 35.1448V33.7768C54.6584 33.4768 54.6224 33.2488 54.5504 33.0928C54.4784 32.9368 54.3104 32.7748 54.0464 32.6068C53.2304 32.1028 52.2764 31.5328 51.1844 30.8968L51.7064 27.4048L57.8624 25.3708L57.6104 27.9088L53.2184 29.2408L53.7224 29.5288C54.5384 30.0208 55.1324 30.4408 55.5044 30.7888C55.8884 31.1248 56.1644 31.5388 56.3324 32.0308C56.5004 32.5108 56.5844 33.1828 56.5844 34.0468V35.1088C56.5844 35.9608 56.3324 36.6088 55.8284 37.0528C55.3244 37.4968 54.6404 37.7908 53.7764 37.9348C52.9244 38.0788 51.8264 38.1508 50.4824 38.1508V35.2528ZM58.5284 38.1508C57.9764 38.1508 57.4844 38.1088 57.0524 38.0248C56.6204 37.9408 56.2424 37.7368 55.9184 37.4128C55.5944 37.0888 55.4324 36.5968 55.4324 35.9368V34.0468H56.5844V34.1368C56.5844 34.5808 56.7224 34.8808 56.9984 35.0368C57.2864 35.1808 57.7964 35.2528 58.5284 35.2528L58.7084 35.4328V37.9708L58.5284 38.1508ZM52.4084 24.4168L57.0524 22.9768L56.9084 24.7768L52.1744 26.3248L52.4084 24.4168ZM70.9352 38.2048C70.4312 38.2048 69.8792 38.1388 69.2792 38.0068C68.6792 37.8748 68.1272 37.6648 67.6232 37.3768C67.1312 37.0768 66.8012 36.7048 66.6332 36.2608C66.5732 36.0808 66.5432 35.9008 66.5432 35.7208C66.5432 35.2168 66.7112 34.7548 67.0472 34.3348C68.0312 34.9228 69.4052 35.3008 71.1692 35.4688L71.0072 30.3928L73.2572 30.2848V35.5588C73.2572 36.4468 73.0712 37.1128 72.6992 37.5568C72.3392 37.9888 71.7512 38.2048 70.9352 38.2048ZM58.5332 35.2528H58.9292C59.2892 35.2528 59.6732 35.2348 60.0812 35.1988C60.4892 35.1508 60.8012 35.1028 61.0172 35.0548V30.9868H63.0152V33.4888C63.0152 34.7488 62.8232 35.7208 62.4392 36.4048C62.0672 37.0768 61.5572 37.5388 60.9092 37.7908C60.2732 38.0308 59.4812 38.1508 58.5332 38.1508V35.2528ZM64.5092 38.2048C63.5132 38.2048 62.7392 37.9708 62.1872 37.5028C61.6472 37.0228 61.3772 36.3568 61.3772 35.5048V31.0768H63.0152V34.3168C63.0152 34.6648 63.1292 34.9168 63.3572 35.0728C63.5972 35.2288 64.0232 35.3068 64.6352 35.3068L64.5092 38.2048ZM64.5092 38.2048C64.3532 38.2048 64.2032 38.0188 64.0592 37.6468C63.9152 37.2628 63.8432 36.8668 63.8432 36.4588C63.8432 36.1228 63.9032 35.8468 64.0232 35.6308C64.1552 35.4148 64.3592 35.3068 64.6352 35.3068C65.3432 35.3068 65.9252 35.2348 66.3812 35.0908V30.9868H68.3792V35.0368C68.3792 36.0928 68.0072 36.8848 67.2632 37.4128C66.5192 37.9408 65.6012 38.2048 64.5092 38.2048ZM67.1732 27.2248H69.8012V29.3668H67.1732V27.2248ZM64.5452 27.2248H67.1732V29.3668H64.5452V27.2248ZM66.0752 25.3528H68.2712V27.2248H66.0752V25.3528ZM77.9762 38.2408C77.1602 38.2408 76.4822 38.0608 75.9422 37.7008C75.4142 37.3408 75.1502 36.7288 75.1502 35.8648C75.1502 35.7688 75.1622 35.6128 75.1862 35.3968L75.7982 29.8888H77.5982C78.8822 29.8888 79.8602 30.1708 80.5322 30.7348C81.2042 31.2868 81.6542 32.0548 81.8822 33.0388C82.1222 34.0228 82.2362 35.2648 82.2242 36.7648L80.4242 38.0248C80.4242 36.4648 80.3822 35.3428 80.2982 34.6588C80.2142 33.9748 79.9742 33.4588 79.5782 33.1108C79.1942 32.7508 78.5522 32.5708 77.6522 32.5708H77.2562L77.0042 35.3608C77.2322 35.3848 77.6942 35.3968 78.3902 35.3968C79.3742 35.3848 80.4662 35.3188 81.6662 35.1988V37.7548C80.4062 38.0788 79.1762 38.2408 77.9762 38.2408ZM75.2762 39.7888C76.5962 39.6568 77.6822 39.4708 78.5342 39.2308C79.3862 39.0028 80.0162 38.7568 80.4242 38.4928V36.6928C80.4242 36.4888 80.5562 36.2668 80.8202 36.0268C81.0842 35.7868 81.3422 35.6668 81.5942 35.6668C82.0142 35.6668 82.2242 36.0328 82.2242 36.7648C82.2242 37.8448 82.1102 38.7208 81.8822 39.3928C81.6542 40.0648 81.0602 40.6828 80.1002 41.2468C79.1402 41.8108 77.6402 42.2248 75.6002 42.4888L75.2762 39.7888ZM82.3343 39.7888C83.2703 39.5968 84.0743 39.3568 84.7463 39.0688C85.4303 38.7928 85.9403 38.5108 86.2763 38.2228C86.6243 37.9468 86.8043 37.7068 86.8163 37.5028L86.8343 36.7288C86.8343 36.5848 86.9123 36.3868 87.0683 36.1348C87.2243 35.8708 87.4103 35.6428 87.6263 35.4508C87.8423 35.2468 88.0343 35.1448 88.2023 35.1448C88.4903 35.1448 88.6343 35.4508 88.6343 36.0628C88.6343 37.0108 88.5263 37.8688 88.3103 38.6368C88.0943 39.4168 87.5483 40.1668 86.6723 40.8868C85.8083 41.6188 84.4883 42.1528 82.7123 42.4888L82.3343 39.7888ZM86.2583 31.1848L88.4543 31.0048C88.5743 33.1648 88.6343 34.8508 88.6343 36.0628C88.6343 36.7588 88.5563 37.3348 88.4003 37.7908C88.2563 38.2468 88.0703 38.5768 87.8423 38.7808C87.6263 38.9968 87.4103 39.1048 87.1943 39.1048C87.0503 39.1048 86.9303 39.0568 86.8343 38.9608C86.7383 38.8768 86.6843 38.7628 86.6723 38.6188L86.2583 31.1848ZM90.6683 38.1508C90.1043 38.1508 89.6423 38.1148 89.2823 38.0428C88.9223 37.9588 88.6043 37.7848 88.3283 37.5208C88.0643 37.2448 87.8663 36.8308 87.7343 36.2788C87.6383 35.8828 87.5723 35.4868 87.5363 35.0908C87.5123 34.6948 87.4943 34.1608 87.4823 33.4888C87.4703 33.3568 87.4643 33.1648 87.4643 32.9128L88.4723 31.3468L88.5803 33.7228C88.6043 34.1908 88.6703 34.5328 88.7783 34.7488C88.8983 34.9528 89.0903 35.0908 89.3543 35.1628C89.6303 35.2228 90.0683 35.2528 90.6683 35.2528L90.8483 35.4328V37.9708L90.6683 38.1508ZM96.552 33.3988C96.552 32.3068 96.504 31.4908 96.408 30.9508C96.324 30.3988 96.126 29.9848 95.814 29.7088C95.502 29.4328 94.998 29.2948 94.302 29.2948H93.69L93.492 31.6888C93.708 31.7128 94.074 31.7248 94.59 31.7248C95.658 31.7248 96.504 31.6348 97.128 31.4548L97.47 33.8848C97.11 33.9928 96.624 34.0948 96.012 34.1908C95.4 34.2868 94.884 34.3348 94.464 34.3348C93.66 34.3348 92.988 34.1548 92.448 33.7948C91.92 33.4348 91.656 32.8288 91.656 31.9768C91.656 31.8808 91.668 31.7248 91.692 31.5088L92.214 26.7928H94.248C95.388 26.7928 96.258 27.0628 96.858 27.6028C97.47 28.1428 97.878 28.8688 98.082 29.7808C98.286 30.6928 98.388 31.8208 98.388 33.1648L96.552 35.7748V34.6408V33.3988ZM90.666 35.2528C92.082 35.2528 93.276 35.2228 94.248 35.1628C95.232 35.1028 96.012 34.9768 96.588 34.7848V34.1908C96.588 33.9868 96.666 33.7528 96.822 33.4888C96.99 33.2248 97.188 33.0028 97.416 32.8228C97.644 32.6308 97.842 32.5348 98.01 32.5348C98.262 32.5348 98.388 32.7448 98.388 33.1648C98.388 34.1008 98.316 34.8628 98.172 35.4508C98.04 36.0268 97.782 36.5008 97.398 36.8728C97.026 37.2448 96.474 37.5148 95.742 37.6828C94.53 37.9948 92.838 38.1508 90.666 38.1508V35.2528ZM95.184 22.7428V25.1908H92.844V22.7428H95.184Z" fill="#EF394E"/>
<rect x="114.563" y="10" width="40" height="40" rx="13" transform="rotate(6.54995 114.563 10)" fill="#EF394E"/>
<path fill-rule="evenodd" clip-rule="evenodd" d="M129.59 23.0494C129.936 22.4952 130.583 22.1568 131.276 22.2364L135.25 22.6927C135.943 22.7723 136.496 23.2484 136.708 23.8666C137.385 23.9505 137.911 24.0421 138.363 24.2811C138.902 24.5668 139.35 24.9984 139.655 25.5267C139.964 26.0593 140.063 26.7079 140.198 27.6002L140.625 30.389L140.807 31.2565L140.828 31.289C141.591 32.5383 140.969 34.1941 139.726 37.5049C138.934 39.6113 138.539 40.6642 137.658 41.2032C136.777 41.7412 135.659 41.6129 133.424 41.3562L128.824 40.8281C126.589 40.5714 125.471 40.4431 124.735 39.7194C123.999 38.9947 123.852 37.8797 123.56 35.6487C123.099 32.1423 122.868 30.3885 123.895 29.3448L123.922 29.3178L124.296 28.5142L125.344 25.8946C125.679 25.0563 125.923 24.4462 126.343 23.9972C126.76 23.5522 127.294 23.2337 127.884 23.0779C128.378 22.9474 128.91 22.9763 129.59 23.0494ZM129.421 24.5428C128.762 24.4743 128.495 24.4687 128.267 24.5291C127.949 24.6131 127.662 24.7848 127.437 25.0247C127.235 25.24 127.094 25.557 126.684 26.584L125.88 28.5943C126.914 28.5298 128.299 28.6889 130.192 28.9063L134.793 29.4345C136.687 29.6521 138.071 29.811 139.064 30.1061L138.737 27.9659C138.571 26.8728 138.505 26.532 138.357 26.2765C138.193 25.992 137.952 25.7596 137.661 25.6057C137.453 25.4952 137.191 25.44 136.534 25.3576C136.359 25.6383 136.108 25.8636 135.81 26.0073C135.512 26.1511 135.179 26.2074 134.851 26.1698L130.877 25.7135C130.548 25.6758 130.237 25.5457 129.979 25.3383C129.722 25.1309 129.528 24.8557 129.421 24.5428Z" fill="white"/>
</svg>
